<svg width="500px" height="66px" xmlns="http://www.w3.org/2000/svg" viewBox="-107.74606933593748 14 715.492138671875 122" style="background: rgba(0, 0, 0, 0);" preserveAspectRatio="xMidYMid"><defs><filter id="editing-extrusion" x="-100%" y="-100%" width="300%" height="300%"><feFlood result="color1" flood-color="#444"></feFlood><feConvolveMatrix order="8,8" divisor="1" kernelMatrix="1 0 0 0 0 0 0 0 0 1 0 0 0 0 0 0 0 0 1 0 0 0 0 0 0 0 0 1 0 0 0 0 0 0 0 0 1 0 0 0 0 0 0 0 0 1 0 0 0 0 0 0 0 0 1 0 0 0 0 0 0 0 0 1" in="SourceAlpha" result="extrude"></feConvolveMatrix><feComposite in="color1" in2="extrude" result="comp-extrude" operator="in"></feComposite><feOffset dx="4" dy="4" in="comp-extrude" result="offset-extrude"></feOffset><feMerge><feMergeNode in="offset-extrude"></feMergeNode><feMergeNode in="SourceGraphic"></feMergeNode></feMerge></filter></defs><g filter="url(#editing-extrusion)"><g transform="translate(-4.814664721488953, 104.79000091552734)"><path d="M26.05-29.57L26.05-29.57L26.05-29.57Q27.01-31.49 27.01-33.28L27.01-33.28L27.01-33.28Q27.01-35.07 26.82-36.06L26.82-36.06L26.82-36.06Q26.62-37.06 26.18-37.82L26.18-37.82L26.18-37.82Q25.22-39.49 23.30-39.49L23.30-39.49L23.30-39.49Q20.93-39.49 19.01-37.76L19.01-37.76L19.01-37.76Q16.96-35.97 16.96-33.15L16.96-33.15L16.96-33.15Q16.96-31.36 18.21-29.98L18.21-29.98L18.21-29.98Q19.46-28.61 21.38-27.33L21.38-27.33L21.38-27.33Q23.30-26.05 25.47-24.77L25.47-24.77L25.47-24.77Q27.65-23.49 29.57-21.95L29.57-21.95L29.57-21.95Q33.98-18.43 33.98-13.70L33.98-13.70L33.98-13.70Q33.98-10.50 32.29-7.78L32.29-7.78L32.29-7.78Q30.59-5.06 27.78-3.07L27.78-3.07L27.78-3.07Q21.63 1.28 13.50 1.28L13.50 1.28L13.50 1.28Q6.91 1.28 3.52-0.86L3.52-0.86L3.52-0.86Q0.13-3.01 0.13-6.27L0.13-6.27L0.13-6.27Q0.13-12.10 4.67-13.57L4.67-13.57L4.67-13.57Q5.95-14.02 7.90-14.02L7.90-14.02L7.90-14.02Q9.86-14.02 12.10-13.18L12.10-13.18L12.10-13.18Q11.07-10.56 11.07-8.19L11.07-8.19L11.07-8.19Q11.07-3.07 14.72-3.07L14.72-3.07L14.72-3.07Q17.09-3.07 19.04-4.80L19.04-4.80L19.04-4.80Q20.99-6.53 20.99-8.48L20.99-8.48L20.99-8.48Q20.99-10.43 19.74-11.84L19.74-11.84L19.74-11.84Q18.50-13.25 16.64-14.37L16.64-14.37L16.64-14.37Q14.78-15.49 12.64-16.58L12.64-16.58L12.64-16.58Q10.50-17.66 8.64-19.20L8.64-19.20L8.64-19.20Q4.29-22.72 4.29-28.35L4.29-28.35L4.29-28.35Q4.29-32 6.08-34.85L6.08-34.85L6.08-34.85Q7.87-37.70 10.75-39.62L10.75-39.62L10.75-39.62Q16.51-43.52 23.58-43.52L23.58-43.52L23.58-43.52Q30.66-43.52 34.08-41.41L34.08-41.41L34.08-41.41Q37.50-39.30 37.50-35.71L37.50-35.71L37.50-35.71Q37.50-32.58 35.07-30.59L35.07-30.59L35.07-30.59Q32.96-28.93 30.40-28.93L30.40-28.93L30.40-28.93Q27.84-28.93 26.05-29.57ZM54.21-3.52L54.21-3.52L54.21-3.52Q52.22 1.28 45.89 1.28L45.89 1.28L45.89 1.28Q42.62 1.28 40.58-0.96L40.58-0.96L40.58-0.96Q38.85-2.94 38.85-4.93L38.85-4.93L38.85-4.93Q38.85-10.11 41.22-20.22L41.22-20.22L43.58-32.64L56.58-33.92L52.67-13.70L52.67-13.70Q51.58-8.96 51.58-7.30L51.58-7.30L51.58-7.30Q51.58-3.65 54.21-3.52ZM44.74-41.54L44.74-41.54L44.74-41.54Q44.74-44.03 46.82-45.38L46.82-45.38L46.82-45.38Q48.90-46.72 51.90-46.72L51.90-46.72L51.90-46.72Q54.91-46.72 56.74-45.38L56.74-45.38L56.74-45.38Q58.56-44.03 58.56-41.54L58.56-41.54L58.56-41.54Q58.56-39.04 56.54-37.76L56.54-37.76L56.54-37.76Q54.53-36.48 51.52-36.48L51.52-36.48L51.52-36.48Q48.51-36.48 46.62-37.76L46.62-37.76L46.62-37.76Q44.74-39.04 44.74-41.54ZM105.73 1.28L105.73 1.28L105.73 1.28Q97.98 1.28 97.98-4.74L97.98-4.74L97.98-4.74Q97.98-7.36 99.10-12.45L99.10-12.45L99.10-12.45Q100.22-17.54 100.61-19.58L100.61-19.58L100.61-19.58Q101.50-24.26 101.50-25.73L101.50-25.73L101.50-25.73Q101.50-28.99 99.07-28.99L99.07-28.99L99.07-28.99Q97.47-28.99 95.94-26.78L95.94-26.78L95.94-26.78Q94.40-24.58 93.70-20.16L93.70-20.16L89.73 0L77.25 1.28L80.70-16.13L80.70-16.13Q81.28-19.01 81.79-22.27L81.79-22.27L81.79-22.27Q82.30-25.54 82.30-26.05L82.30-26.05L82.30-26.05Q82.30-28.99 80.13-28.99L80.13-28.99L80.13-28.99Q78.66-28.99 77.06-26.82L77.06-26.82L77.06-26.82Q75.46-24.64 74.56-20.16L74.56-20.16L70.66 0L58.05 1.28L64.77-32.64L75.20-33.92L74.11-27.46L74.11-27.46Q75.78-30.91 78.85-32.42L78.85-32.42L78.85-32.42Q81.92-33.92 86.72-33.92L86.72-33.92L86.72-33.92Q89.47-33.92 91.26-32.58L91.26-32.58L91.26-32.58Q93.06-31.23 93.63-29.06L93.63-29.06L93.63-29.06Q94.72-31.30 97.50-32.61L97.50-32.61L97.50-32.61Q100.29-33.92 103.71-33.92L103.71-33.92L103.71-33.92Q107.14-33.92 108.83-33.18L108.83-33.18L108.83-33.18Q110.53-32.45 111.55-31.23L111.55-31.23L111.55-31.23Q113.28-28.99 113.28-24.90L113.28-24.90L113.28-24.90Q113.28-20.86 111.55-12.48L111.55-12.48L111.55-12.48Q110.66-8.38 110.66-6.88L110.66-6.88L110.66-6.88Q110.66-5.38 111.52-4.48L111.52-4.48L111.52-4.48Q112.38-3.58 113.66-3.46L113.66-3.46L113.66-3.46Q113.02-1.28 110.82 0L110.82 0L110.82 0Q108.61 1.28 105.73 1.28ZM144.51-10.82L144.51-10.82L144.51-10.82Q146.11-9.73 146.11-7.33L146.11-7.33L146.11-7.33Q146.11-4.93 144.90-3.39L144.90-3.39L144.90-3.39Q143.68-1.86 141.70-0.83L141.70-0.83L141.70-0.83Q137.60 1.28 133.18 1.28L133.18 1.28L133.18 1.28Q128.77 1.28 126.18 0.32L126.18 0.32L126.18 0.32Q123.58-0.64 121.86-2.43L121.86-2.43L121.86-2.43Q118.46-5.82 118.46-12.03L118.46-12.03L118.46-12.03Q118.46-21.70 123.71-27.58L123.71-27.58L123.71-27.58Q129.34-33.92 139.14-33.92L139.14-33.92L139.14-33.92Q145.22-33.92 148.22-31.36L148.22-31.36L148.22-31.36Q150.46-29.44 150.46-26.30L150.46-26.30L150.46-26.30Q150.46-15.04 131.01-15.04L131.01-15.04L131.01-15.04Q130.75-13.38 130.75-11.97L130.75-11.97L130.75-11.97Q130.75-9.02 132.06-7.90L132.06-7.90L132.06-7.90Q133.38-6.78 135.81-6.78L135.81-6.78L135.81-6.78Q138.24-6.78 140.83-7.90L140.83-7.90L140.83-7.90Q143.42-9.02 144.51-10.82ZM131.46-17.79L131.46-17.79L131.46-17.79Q136-17.79 138.62-20.61L138.62-20.61L138.62-20.61Q141.25-23.30 141.25-27.58L141.25-27.58L141.25-27.58Q141.25-29.06 140.70-29.86L140.70-29.86L140.70-29.86Q140.16-30.66 139.07-30.66L139.07-30.66L139.07-30.66Q137.98-30.66 137.06-30.24L137.06-30.24L137.06-30.24Q136.13-29.82 135.17-28.42L135.17-28.42L135.17-28.42Q132.80-25.22 131.46-17.79ZM166.59 1.28L166.59 1.28L166.59 1.28Q152.51 1.28 152.51-11.97L152.51-11.97L152.51-11.97Q152.51-21.38 157.70-27.46L157.70-27.46L157.70-27.46Q163.20-33.92 172.74-33.92L172.74-33.92L172.74-33.92Q179.65-33.92 183.17-30.72L183.17-30.72L183.17-30.72Q186.69-27.52 186.69-20.80L186.69-20.80L186.69-20.80Q186.69-10.56 181.18-4.61L181.18-4.61L181.18-4.61Q175.81 1.28 166.59 1.28ZM168.26-26.56L168.26-26.56L168.26-26.56Q167.49-24.83 166.88-22.24L166.88-22.24L166.88-22.24Q166.27-19.65 165.50-15.55L165.50-15.55L165.50-15.55Q164.74-11.46 164.74-6.40L164.74-6.40L164.74-6.40Q164.74-4.74 165.28-3.65L165.28-3.65L165.28-3.65Q165.82-2.56 167.30-2.56L167.30-2.56L167.30-2.56Q168.77-2.56 169.70-3.26L169.70-3.26L169.70-3.26Q170.62-3.97 171.33-5.63L171.33-5.63L171.33-5.63Q172.61-8.58 173.63-14.05L173.63-14.05L173.63-14.05Q174.66-19.52 174.75-21.89L174.75-21.89L174.75-21.89Q174.85-24.26 174.85-26.02L174.85-26.02L174.85-26.02Q174.85-27.78 174.34-28.93L174.34-28.93L174.34-28.93Q173.82-30.08 172.38-30.08L172.38-30.08L172.38-30.08Q170.94-30.08 169.98-29.18L169.98-29.18L169.98-29.18Q169.02-28.29 168.26-26.56ZM217.54 1.28L217.54 1.28L217.54 1.28Q209.79 1.28 209.79-4.74L209.79-4.74L209.79-4.74Q209.86-6.40 210.37-9.22L210.37-9.22L211.52-15.10L211.52-15.10Q213.25-23.42 213.25-25.28L213.25-25.28L213.25-25.28Q213.25-28.99 211.07-28.99L211.07-28.99L211.07-28.99Q207.42-28.99 205.50-19.46L205.50-19.46L201.73 0L188.86 1.28L195.52-32.70L206.02-33.92L204.99-27.65L204.99-27.65Q208.00-33.92 217.22-33.92L217.22-33.92L217.22-33.92Q221.70-33.92 223.58-32.03L223.58-32.03L223.58-32.03Q225.47-30.14 225.47-25.92L225.47-25.92L225.47-25.92Q225.47-21.95 223.42-12.67L223.42-12.67L223.42-12.67Q222.46-8.51 222.46-6.94L222.46-6.94L222.46-6.94Q222.46-5.38 223.33-4.48L223.33-4.48L223.33-4.48Q224.19-3.58 225.47-3.46L225.47-3.46L225.47-3.46Q224.83-1.28 222.62 0L222.62 0L222.62 0Q220.42 1.28 217.54 1.28ZM256.90 0L243.20 0L251.01-42.05L251.01-42.05Q257.34-42.75 266.59-42.75L266.59-42.75L266.59-42.75Q275.84-42.75 280.13-40.06L280.13-40.06L280.13-40.06Q284.42-37.38 284.42-31.97L284.42-31.97L284.42-31.97Q284.42-26.56 281.63-23.17L281.63-23.17L281.63-23.17Q278.85-19.78 274.05-18.69L274.05-18.69L274.05-18.69Q275.14-13.38 277.63-9.09L277.63-9.09L277.63-9.09Q279.94-5.06 282.62-3.78L282.62-3.78L282.62-3.78Q281.66-1.09 279.71 0.10L279.71 0.10L279.71 0.10Q277.76 1.28 274.98 1.28L274.98 1.28L274.98 1.28Q272.19 1.28 270.02-0.35L270.02-0.35L270.02-0.35Q267.84-1.98 266.11-4.99L266.11-4.99L266.11-4.99Q262.46-11.52 262.08-21.82L262.08-21.82L262.53-21.82L262.53-21.82Q267.26-21.95 269.63-24.42L269.63-24.42L269.63-24.42Q272-26.88 272-32.06L272-32.06L272-32.06Q272-38.53 266.56-38.78L266.56-38.78L265.15-38.78L265.15-38.78Q264.58-38.78 264.26-38.72L264.26-38.72L256.90 0ZM290.14-1.92L290.14-1.92L290.14-1.92Q288.64-3.58 287.97-6.21L287.97-6.21L287.97-6.21Q287.30-8.83 287.30-13.12L287.30-13.12L287.30-13.12Q287.30-17.41 288.77-21.31L288.77-21.31L288.77-21.31Q290.24-25.22 292.93-28.03L292.93-28.03L292.93-28.03Q298.43-33.92 307.52-33.92L307.52-33.92L307.52-33.92Q310.78-33.92 313.15-32.83L313.15-32.83L324.10-33.92L319.36-8.96L319.36-8.96Q319.17-8.19 319.17-6.78L319.17-6.78L319.17-6.78Q319.17-5.38 320.03-4.48L320.03-4.48L320.03-4.48Q320.90-3.58 322.18-3.46L322.18-3.46L322.18-3.46Q321.54-1.28 319.20 0L319.20 0L319.20 0Q316.86 1.28 314.24 1.28L314.24 1.28L314.24 1.28Q311.62 1.28 309.86 0.29L309.86 0.29L309.86 0.29Q308.10-0.70 307.58-2.37L307.58-2.37L307.58-2.37Q306.56-0.77 304.38 0.26L304.38 0.26L304.38 0.26Q302.21 1.28 299.30 1.28L299.30 1.28L299.30 1.28Q296.38 1.28 294.02 0.51L294.02 0.51L294.02 0.51Q291.65-0.26 290.14-1.92ZM303.65-27.90L303.65-27.90L303.65-27.90Q302.91-26.75 302.27-24.80L302.27-24.80L302.27-24.80Q301.63-22.85 300.58-17.63L300.58-17.63L300.58-17.63Q299.52-12.42 299.52-8.70L299.52-8.70L299.52-8.70Q299.52-4.99 300.10-3.90L300.10-3.90L300.10-3.90Q300.67-2.82 301.70-2.82L301.70-2.82L301.70-2.82Q303.74-2.82 305.25-4.77L305.25-4.77L305.25-4.77Q306.75-6.72 307.33-10.18L307.33-10.18L310.72-28.93L310.72-28.93Q309.38-30.08 307.81-30.08L307.81-30.08L307.81-30.08Q306.24-30.08 305.31-29.57L305.31-29.57L305.31-29.57Q304.38-29.06 303.65-27.90ZM347.90-7.23L347.90-7.23L347.90-7.23Q344.58-3.78 338.50-3.78L338.50-3.78L338.50-3.78Q330.88-3.78 329.28-9.34L329.28-9.34L329.28-9.34Q328.77-11.01 328.77-12.86L328.77-12.86L328.77-12.86Q328.77-14.72 329.15-16.64L329.15-16.64L332.16-32.64L345.15-33.92L341.63-15.30L341.63-15.30Q341.50-14.46 341.31-13.57L341.31-13.57L341.31-13.57Q341.12-12.67 341.12-11.74L341.12-11.74L341.12-11.74Q341.12-10.82 341.44-10.21L341.44-10.21L341.44-10.21Q341.76-9.60 342.21-9.22L342.21-9.22L342.21-9.22Q342.98-8.70 344.35-8.70L344.35-8.70L344.35-8.70Q345.73-8.70 346.91-10.37L346.91-10.37L346.91-10.37Q348.10-12.03 348.67-14.91L348.67-14.91L352.19-32.64L364.80-33.92L360.00-8.77L360.00-8.77Q357.63 3.52 352.77 8.38L352.77 8.38L352.77 8.38Q350.27 10.88 347.04 11.87L347.04 11.87L347.04 11.87Q343.81 12.86 339.65 12.86L339.65 12.86L339.65 12.86Q332.93 12.86 329.09 10.75L329.09 10.75L329.09 10.75Q325.25 8.64 325.25 5.12L325.25 5.12L325.25 5.12Q325.25 2.50 327.23 0.99L327.23 0.99L327.23 0.99Q329.22-0.51 332.29-0.51L332.29-0.51L332.29-0.51Q334.98-0.51 337.02 0.64L337.02 0.64L337.02 0.64Q338.24 1.34 338.82 2.24L338.82 2.24L338.82 2.24Q337.34 3.52 337.34 5.63L337.34 5.63L337.34 5.63Q337.34 8.45 339.90 8.45L339.90 8.45L339.90 8.45Q344.13 8.45 346.56-1.28L346.56-1.28L346.56-1.28Q347.26-4.16 347.90-7.23ZM398.53-26.62L398.53-26.62L398.53-26.62Q398.53-23.94 396.29-22.27L396.29-22.27L396.29-22.27Q394.05-20.61 390.40-20.61L390.40-20.61L390.40-20.61Q388.86-20.61 387.97-21.06L387.97-21.06L387.97-21.06Q388.67-22.72 388.90-24.80L388.90-24.80L388.90-24.80Q389.12-26.88 389.12-27.46L389.12-27.46L389.12-27.46Q389.12-30.14 387.26-30.14L387.26-30.14L387.26-30.14Q385.98-30.14 384.54-28.54L384.54-28.54L384.54-28.54Q383.10-26.94 381.89-24.45L381.89-24.45L381.89-24.45Q379.20-18.69 379.20-12.86L379.20-12.86L379.20-12.86Q379.20-9.66 380.42-8.22L380.42-8.22L380.42-8.22Q381.63-6.78 384.32-6.78L384.32-6.78L384.32-6.78Q388.03-6.78 390.98-9.86L390.98-9.86L390.98-9.86Q391.81-10.82 392.26-11.90L392.26-11.90L392.26-11.90Q394.69-10.62 394.69-7.10L394.69-7.10L394.69-7.10Q394.69-3.52 390.72-1.15L390.72-1.15L390.72-1.15Q386.62 1.28 380.10 1.28L380.10 1.28L380.10 1.28Q367.10 1.28 367.10-12.48L367.10-12.48L367.10-12.48Q367.10-22.53 372.80-28.29L372.80-28.29L372.80-28.29Q378.30-33.92 388.42-33.92L388.42-33.92L388.42-33.92Q398.53-33.92 398.53-26.62ZM432.45-7.10L432.45-7.10L432.45-7.10Q432.45-4.29 435.33-3.46L435.33-3.46L435.33-3.46Q434.62-1.09 431.87 0.19L431.87 0.19L431.87 0.19Q429.57 1.28 427.04 1.28L427.04 1.28L427.04 1.28Q424.51 1.28 423.20 0.61L423.20 0.61L423.20 0.61Q421.89-0.06 421.18-1.15L421.18-1.15L421.18-1.15Q420.03-2.82 420.03-5.95L420.03-5.95L420.03-5.95Q420.03-7.81 421.06-12.93L421.06-12.93L421.95-17.79L421.95-17.79Q423.04-23.36 423.04-25.41L423.04-25.41L423.04-25.41Q423.04-28.99 421.06-28.99L421.06-28.99L421.06-28.99Q418.56-28.99 416.96-25.34L416.96-25.34L416.96-25.34Q416.32-23.94 415.87-21.82L415.87-21.82L411.52 0L398.66 1.28L407.68-44.80L420.54-46.08L420.03-43.52L420.03-43.52Q418.24-33.66 416.70-30.34L416.70-30.34L416.70-30.34Q420.29-33.92 426.88-33.92L426.88-33.92L426.88-33.92Q433.86-33.92 435.14-29.31L435.14-29.31L435.14-29.31Q435.58-27.84 435.58-26.56L435.58-26.56L435.58-26.56Q435.58-25.28 435.49-24.29L435.49-24.29L435.49-24.29Q435.39-23.30 435.07-21.50L435.07-21.50L434.24-16.90L432.77-9.66L432.77-9.66Q432.45-8.19 432.45-7.10ZM466.43-10.82L466.43-10.82L466.43-10.82Q468.03-9.73 468.03-7.33L468.03-7.33L468.03-7.33Q468.03-4.93 466.82-3.39L466.82-3.39L466.82-3.39Q465.60-1.86 463.62-0.83L463.62-0.83L463.62-0.83Q459.52 1.28 455.10 1.28L455.10 1.28L455.10 1.28Q450.69 1.28 448.10 0.32L448.10 0.32L448.10 0.32Q445.50-0.64 443.78-2.43L443.78-2.43L443.78-2.43Q440.38-5.82 440.38-12.03L440.38-12.03L440.38-12.03Q440.38-21.70 445.63-27.58L445.63-27.58L445.63-27.58Q451.26-33.92 461.06-33.92L461.06-33.92L461.06-33.92Q467.14-33.92 470.14-31.36L470.14-31.36L470.14-31.36Q472.38-29.44 472.38-26.30L472.38-26.30L472.38-26.30Q472.38-15.04 452.93-15.04L452.93-15.04L452.93-15.04Q452.67-13.38 452.67-11.97L452.67-11.97L452.67-11.97Q452.67-9.02 453.98-7.90L453.98-7.90L453.98-7.90Q455.30-6.78 457.73-6.78L457.73-6.78L457.73-6.78Q460.16-6.78 462.75-7.90L462.75-7.90L462.75-7.90Q465.34-9.02 466.43-10.82ZM453.38-17.79L453.38-17.79L453.38-17.79Q457.92-17.79 460.54-20.61L460.54-20.61L460.54-20.61Q463.17-23.30 463.17-27.58L463.17-27.58L463.17-27.58Q463.17-29.06 462.62-29.86L462.62-29.86L462.62-29.86Q462.08-30.66 460.99-30.66L460.99-30.66L460.99-30.66Q459.90-30.66 458.98-30.24L458.98-30.24L458.98-30.24Q458.05-29.82 457.09-28.42L457.09-28.42L457.09-28.42Q454.72-25.22 453.38-17.79ZM497.79-31.55L497.79-31.55L497.79-31.55Q499.90-33.92 503.55-33.92L503.55-33.92L503.55-33.92Q505.79-33.92 507.52-32.70L507.52-32.70L507.52-32.70Q509.25-31.49 509.25-29.22L509.25-29.22L509.25-29.22Q509.25-26.94 508.54-24.51L508.54-24.51L508.54-24.51Q507.84-22.08 506.75-19.58L506.75-19.58L506.75-19.58Q504.58-14.72 501.57-10.69L501.57-10.69L501.57-10.69Q497.34-4.86 493.28-1.79L493.28-1.79L493.28-1.79Q489.22 1.28 484.80 1.28L484.80 1.28L484.80 1.28Q481.22 1.28 479.04 0.45L479.04 0.45L479.04 0.45Q478.66-12.99 478.18-17.79L478.18-17.79L478.18-17.79Q477.70-22.59 477.31-25.22L477.31-25.22L477.31-25.22Q476.67-30.34 474.75-31.55L474.75-31.55L474.75-31.55Q476.22-32.83 477.66-33.38L477.66-33.38L477.66-33.38Q479.10-33.92 482.08-33.92L482.08-33.92L482.08-33.92Q485.06-33.92 487.17-31.58L487.17-31.58L487.17-31.58Q489.28-29.25 489.70-25.12L489.70-25.12L489.70-25.12Q490.11-20.99 490.11-16L490.11-16L490.11-16Q490.11-11.01 489.73-4.99L489.73-4.99L489.73-4.99Q491.71-6.40 493.82-10.69L493.82-10.69L493.82-10.69Q496.70-16.64 497.73-23.81L497.73-23.81L497.73-23.81Q498.05-25.98 498.05-28.29L498.05-28.29L498.05-28.29Q498.05-30.59 497.79-31.55Z" fill="#ccc"></path></g></g><style>text {
  font-size: 64px;
  font-family: Arial Black;
  dominant-baseline: central;
  text-anchor: middle;
}</style></svg>